<?xml version="1.0" standalone="no"?>
<!DOCTYPE svg PUBLIC "-//W3C//DTD SVG 20010904//EN"
 "http://www.w3.org/TR/2001/REC-SVG-20010904/DTD/svg10.dtd">
<svg version="1.0" xmlns="http://www.w3.org/2000/svg"
 width="1024.000000pt" height="1024.000000pt" viewBox="0 0 1024.000000 1024.000000"
 preserveAspectRatio="xMidYMid meet">

<g transform="translate(0.000000,1024.000000) scale(0.100000,-0.100000)"
fill="#000000" stroke="none">
<path d="M4968 9360 c-83 -15 -148 -41 -214 -86 l-63 -43 -47 20 c-153 68
-475 -32 -564 -175 -25 -42 -36 -43 -116 -16 -68 24 -166 46 -240 54 -70 8
-265 -10 -369 -34 -169 -39 -354 -148 -479 -281 -63 -67 -79 -91 -94 -140 -16
-55 -19 -59 -52 -64 -116 -18 -216 -66 -301 -143 -35 -33 -74 -80 -87 -105
-20 -39 -29 -47 -60 -53 -118 -21 -265 -136 -339 -265 -54 -95 -75 -173 -71
-269 l3 -74 -30 -6 c-118 -25 -224 -151 -241 -287 -6 -48 -3 -61 26 -119 l31
-64 -56 -64 c-76 -87 -109 -169 -103 -256 6 -73 24 -117 76 -174 l35 -39 -29
-20 c-174 -122 -269 -395 -220 -629 17 -78 35 -116 81 -166 l33 -37 -24 -90
c-35 -127 -31 -265 9 -346 49 -101 114 -147 208 -148 43 -1 135 -25 152 -41 4
-3 1 -23 -8 -43 -16 -39 -18 -75 -12 -232 4 -114 21 -156 84 -217 60 -57 130
-88 202 -88 34 0 61 -4 61 -9 0 -5 18 -33 41 -61 40 -50 119 -100 161 -100 27
0 30 -16 13 -72 -26 -88 -16 -167 28 -215 15 -17 21 -38 22 -82 3 -96 54 -165
194 -260 34 -23 99 -60 144 -82 69 -33 98 -41 180 -48 111 -11 186 -2 244 27
21 11 70 23 108 27 134 12 209 44 297 124 l55 50 72 -96 c178 -236 251 -496
238 -857 -5 -149 -16 -209 -82 -432 -4 -11 -22 -29 -41 -39 -76 -41 -143 -144
-144 -220 0 -35 -6 -47 -41 -80 -72 -68 -104 -181 -75 -265 l15 -44 -76 -146
c-101 -193 -205 -379 -323 -580 -161 -272 -251 -432 -247 -437 3 -2 79 -7 168
-10 174 -6 303 7 464 46 77 19 81 19 110 1 94 -56 182 -48 261 24 l47 42 56
-30 c49 -27 66 -31 134 -31 l79 0 37 44 c32 37 41 42 62 36 13 -5 41 -7 63 -7
26 1 62 -10 114 -36 70 -34 83 -37 162 -37 81 0 91 2 139 33 47 29 59 32 111
29 35 -3 71 -12 92 -25 125 -76 356 -64 439 24 21 22 30 24 113 24 50 0 152 9
226 19 74 11 204 23 288 27 83 4 152 8 152 9 0 1 -42 107 -93 236 -148 368
-167 452 -167 715 0 161 14 293 44 399 104 379 126 442 184 549 28 51 51 78
86 103 96 66 181 76 480 55 98 -6 202 -10 230 -7 28 2 112 10 186 16 169 15
225 34 281 97 90 103 134 237 126 387 -4 75 -11 106 -43 185 -37 90 -39 100
-39 206 0 106 1 112 28 143 15 18 27 36 27 41 0 4 -27 41 -60 80 -33 39 -60
76 -60 80 0 13 96 126 122 144 31 22 30 80 -2 123 -23 32 -23 35 -12 110 7 46
9 110 6 155 l-7 78 49 52 c39 42 61 57 108 71 110 34 171 87 184 159 5 25 16
56 25 69 34 47 21 95 -45 167 -21 23 -90 120 -152 215 -62 94 -143 205 -179
245 -37 39 -68 80 -68 90 -1 9 -1 62 0 117 3 123 -21 223 -79 333 l-40 76 41
48 c84 100 125 240 116 398 -4 52 -11 118 -18 146 l-12 50 81 80 c65 66 88 98
126 175 62 129 76 189 76 334 0 228 -66 377 -217 496 -7 5 -13 18 -13 29 0 67
-101 201 -187 250 -30 17 -44 32 -49 54 -16 71 -150 164 -265 182 -30 5 -47
17 -76 53 -78 95 -138 126 -270 136 -86 7 -93 9 -93 29 0 37 -55 140 -94 173
-92 81 -167 100 -506 122 -151 10 -299 16 -328 13 -51 -4 -53 -3 -107 46 -62
57 -150 102 -257 132 -82 23 -274 34 -350 20z m309 -137 c55 -17 133 -74 133
-97 0 -7 -14 -27 -30 -45 -36 -37 -32 -51 17 -51 63 0 116 -22 161 -69 23 -24
46 -40 50 -37 3 4 9 31 12 59 7 72 32 75 100 11 61 -57 71 -89 59 -190 -6 -42
-7 -79 -5 -82 3 -3 45 33 93 79 61 58 102 89 132 99 51 17 61 34 32 49 -19 11
-48 7 -117 -14 -17 -5 -26 1 -44 31 -23 36 -23 37 -4 51 15 12 43 14 129 10
124 -5 162 -17 220 -71 52 -47 74 -48 46 -2 -12 18 -21 36 -21 40 0 16 81 3
130 -22 75 -37 88 -70 42 -113 -18 -17 -32 -32 -32 -34 0 -3 15 -12 33 -21 61
-31 77 -53 77 -106 0 -26 4 -48 9 -48 6 0 31 11 57 25 89 47 231 22 277 -49
22 -32 21 -38 -3 -66 -15 -18 -17 -27 -9 -42 9 -16 17 -19 47 -14 89 16 173
18 203 6 48 -20 73 -85 49 -130 -13 -24 21 -50 66 -50 45 0 98 -25 144 -66 51
-47 52 -73 2 -99 -49 -26 -48 -48 2 -56 28 -5 50 -17 73 -43 30 -33 33 -41 33
-101 l0 -66 30 16 c41 21 55 19 94 -15 37 -33 63 -96 68 -164 3 -38 1 -41 -57
-82 -76 -54 -80 -78 -13 -82 54 -4 78 -27 78 -77 0 -37 -40 -109 -62 -113 -12
-2 -27 15 -50 60 -33 63 -33 63 -36 30 -2 -18 4 -61 12 -95 19 -76 8 -132 -29
-149 -19 -9 -33 -5 -81 21 -101 55 -122 35 -69 -62 36 -65 44 -125 26 -172 -5
-11 -5 -29 -1 -40 4 -11 15 -64 24 -118 13 -76 15 -109 7 -153 -16 -85 -65
-175 -136 -254 -36 -38 -65 -72 -65 -74 0 -2 22 -20 50 -40 28 -20 56 -50 64
-69 28 -68 48 -184 51 -292 4 -148 34 -242 96 -294 36 -31 73 -77 169 -214 8
-12 45 -62 83 -112 37 -49 67 -95 67 -101 0 -8 -16 -8 -57 2 -32 8 -94 14
-138 14 -67 0 -89 -5 -140 -29 -105 -49 -178 -159 -161 -241 3 -17 20 -60 37
-96 28 -57 31 -72 26 -121 -14 -131 -117 -196 -186 -118 -63 72 -99 172 -137
385 -18 104 -23 306 -10 461 l8 95 62 46 c147 109 209 282 172 478 -15 82 -31
122 -89 221 l-27 46 39 49 c80 101 99 169 60 218 -44 56 -114 14 -143 -86 -9
-31 -16 -61 -16 -66 0 -26 -25 -21 -58 11 -66 63 -98 70 -169 37 -58 -26 -54
-40 11 -40 45 0 60 -5 88 -27 152 -127 224 -347 173 -536 -21 -79 -85 -201
-98 -187 -2 3 3 71 13 151 30 248 2 397 -82 440 -46 24 -121 34 -173 25 -40
-8 -117 -72 -141 -117 -7 -15 -20 -71 -28 -124 -8 -53 -22 -108 -31 -121 -15
-23 -17 -24 -45 -9 -16 9 -37 27 -46 41 -21 31 -44 126 -44 182 0 39 2 42 28
42 44 0 86 33 172 137 82 99 150 217 150 259 0 91 -90 121 -185 63 -42 -26
-125 -111 -154 -158 -6 -9 -16 -5 -39 18 -33 33 -56 38 -96 20 -28 -13 -48
-56 -66 -142 -10 -48 -9 -62 3 -80 8 -13 17 -63 20 -122 8 -113 26 -184 68
-265 37 -71 66 -103 120 -130 36 -19 53 -21 102 -16 131 13 184 79 212 264 8
56 21 111 27 122 14 22 37 34 47 24 3 -3 7 -153 9 -333 3 -304 1 -328 -15
-343 -24 -21 -133 -78 -149 -78 -8 0 -43 30 -79 66 -77 76 -154 117 -258 135
-40 7 -73 13 -75 14 -1 1 8 24 20 51 30 68 31 181 2 221 -25 34 -62 48 -98 39
-20 -5 -26 -13 -26 -34 0 -65 -75 -172 -120 -172 -20 0 -45 26 -58 60 -8 23
-6 26 42 45 37 15 53 27 60 48 15 41 -2 61 -55 67 l-44 5 75 51 c90 62 108 80
116 121 5 26 1 37 -19 57 -22 22 -35 26 -81 26 -122 0 -168 -46 -241 -235
-101 -266 -198 -396 -269 -364 -27 13 -61 68 -54 89 2 7 38 24 78 37 82 27
120 55 120 89 0 31 -22 36 -122 28 l-88 -7 0 26 c0 54 16 73 79 96 99 36 151
92 151 164 0 56 -58 97 -137 97 -73 0 -140 -38 -192 -107 -51 -69 -68 -127
-76 -263 -4 -58 -14 -136 -22 -175 -15 -71 -144 -355 -160 -355 -23 0 -53 184
-73 435 -23 289 -71 397 -203 455 -73 33 -220 45 -380 32 -145 -12 -213 -31
-312 -87 l-62 -35 -23 61 -22 60 54 57 c113 118 143 205 142 404 0 135 -1 137
-35 205 -39 78 -74 106 -155 124 -101 23 -202 -19 -244 -100 -10 -21 -26 -82
-35 -136 -22 -139 -82 -369 -111 -432 -14 -29 -48 -77 -75 -107 -27 -30 -49
-62 -49 -73 0 -54 72 -88 126 -60 16 8 49 31 74 51 31 25 47 32 52 23 11 -18
10 -204 -3 -294 -37 -277 -248 -387 -434 -228 -112 95 -160 228 -240 654 -47
253 -67 291 -148 291 -75 0 -121 -75 -171 -276 -19 -76 -37 -154 -41 -171 -4
-18 -10 -33 -13 -33 -8 0 -115 219 -134 273 -18 54 -40 70 -97 71 -91 2 -104
-32 -121 -319 -25 -413 -61 -516 -262 -749 -77 -89 -79 -92 -73 -133 l6 -41
-58 -13 c-141 -31 -243 8 -243 92 0 53 -12 89 -30 89 -9 0 -38 -18 -64 -41
-55 -48 -86 -48 -106 1 -26 62 7 226 60 300 12 17 40 42 61 56 48 30 49 51 6
69 -19 8 -39 21 -47 29 -7 9 -25 16 -40 16 -21 0 -34 8 -49 34 -12 18 -21 41
-21 49 0 21 56 84 81 92 28 9 7 33 -37 41 -20 4 -43 18 -55 33 -18 23 -20 34
-15 91 8 80 40 150 95 213 45 49 64 56 95 32 40 -30 53 -20 59 50 8 79 25 114
76 156 43 34 53 51 45 73 -9 23 -41 25 -105 9 -54 -13 -62 -13 -83 1 -77 50
-43 221 55 271 15 8 46 15 68 15 22 0 43 5 46 10 4 6 -7 26 -24 46 -17 19 -31
39 -31 45 0 24 30 77 54 96 42 33 34 47 -24 39 -42 -6 -53 -3 -70 14 -25 25
-25 50 -1 99 42 82 131 129 189 100 15 -7 30 -15 35 -17 4 -2 7 23 7 56 0 53
4 66 34 106 46 59 50 82 14 78 -87 -10 -45 195 48 234 19 8 55 15 79 16 58 1
79 23 47 48 -42 35 -27 55 53 70 30 6 54 3 95 -11 30 -10 55 -19 56 -19 1 0 4
19 7 41 7 50 47 95 91 104 56 11 66 16 66 31 0 8 -13 17 -30 21 -17 3 -33 9
-36 14 -11 19 21 52 72 75 88 39 183 42 291 9 20 -6 23 -3 29 35 9 53 40 90
101 121 26 13 51 29 55 34 13 17 -24 35 -74 35 -41 0 -48 3 -48 19 0 28 43 74
112 120 67 46 99 50 169 26 46 -16 105 -23 115 -12 3 3 -7 28 -23 56 -22 40
-26 54 -17 68 13 20 103 51 152 52 32 1 32 1 32 -49 0 -27 3 -50 7 -50 4 0 39
21 77 48 65 45 72 47 135 47 76 -1 139 -17 173 -44 20 -17 21 -22 10 -41 -18
-30 -7 -40 45 -40 64 0 172 -34 221 -70 46 -33 52 -27 22 22 -11 18 -20 41
-20 51 0 36 33 76 75 90 52 18 56 41 14 77 -28 23 -32 30 -21 43 31 37 211 92
274 84 86 -12 118 -70 79 -143 -22 -41 -28 -84 -11 -84 6 0 27 11 48 25 21 14
59 29 85 34 26 5 50 11 53 14 3 3 -2 17 -11 31 -10 16 -15 35 -11 49 7 28 101
107 148 124 76 28 105 13 175 -90 21 -30 40 -47 53 -47 23 0 23 3 20 82 -2 55
-1 58 32 78 40 24 30 24 95 3z m-1189 -2230 c37 -92 41 -206 11 -313 -25 -90
-78 -195 -92 -181 -5 5 -12 99 -15 209 -5 205 4 286 35 317 19 20 47 5 61 -32z
m-1123 -660 c18 -177 71 -373 138 -512 47 -96 142 -192 237 -240 95 -47 161
-58 262 -41 146 25 273 110 326 221 45 94 74 234 79 387 3 81 9 140 14 135 5
-5 18 -47 30 -93 16 -63 19 -97 14 -139 -18 -138 -8 -171 50 -171 29 0 35 5
49 40 15 38 15 122 0 172 -8 28 152 114 256 138 105 23 293 5 379 -36 72 -36
80 -59 92 -253 19 -318 48 -520 85 -594 63 -124 229 -219 358 -205 92 11 155
92 156 198 0 64 -15 99 -52 119 -41 23 -59 2 -57 -68 2 -74 -7 -100 -38 -107
-32 -8 -103 13 -103 31 0 7 11 26 24 42 31 37 126 227 126 252 0 33 19 34 45
3 54 -65 160 -83 226 -38 47 32 110 116 148 195 l30 64 11 -29 c22 -64 56 -93
118 -101 23 -3 42 -9 42 -14 0 -4 -14 -18 -31 -30 -18 -12 -61 -67 -96 -121
-50 -77 -99 -133 -215 -246 -181 -178 -259 -237 -392 -302 -116 -57 -234 -88
-356 -95 -47 -3 -166 -10 -265 -17 l-180 -11 -45 -40 c-71 -62 -94 -70 -176
-65 -117 8 -201 73 -260 202 -43 95 -50 158 -26 251 11 44 29 101 40 126 18
41 23 46 45 42 22 -4 32 -21 66 -102 95 -223 239 -342 416 -345 161 -2 266
105 309 316 41 196 4 582 -70 729 -59 118 -177 158 -297 100 -119 -58 -140
-153 -50 -231 37 -33 73 -39 94 -14 10 13 10 20 -4 44 -9 15 -17 42 -17 58 0
25 7 33 41 50 50 25 67 20 73 -21 3 -18 12 -72 20 -122 52 -310 59 -584 18
-662 -27 -51 -57 -73 -111 -80 -60 -8 -98 12 -147 80 -24 32 -44 63 -44 67 0
5 33 43 74 85 81 82 116 142 124 211 5 50 -17 94 -47 94 -27 0 -82 -58 -128
-137 -44 -73 -69 -101 -81 -89 -4 4 -7 51 -6 104 1 82 5 107 28 162 40 93 42
113 15 139 -72 67 -195 -33 -234 -189 -29 -121 -38 -129 -82 -80 -47 53 -103
30 -103 -43 0 -29 -11 -56 -39 -102 -33 -52 -48 -91 -87 -227 -4 -14 -16 -18
-55 -18 -27 0 -49 2 -49 4 0 3 -5 40 -11 82 -12 88 -24 117 -67 158 -60 56
-171 41 -213 -28 -23 -37 -25 -115 -5 -155 19 -36 83 -93 122 -109 31 -13 31
-14 23 -65 -5 -29 -15 -104 -24 -167 -16 -125 -31 -190 -44 -190 -10 0 -50 59
-81 120 -41 81 -62 154 -69 248 -6 76 -12 97 -29 115 -29 29 -91 29 -129 1
-37 -28 -48 -70 -68 -275 -10 -96 -23 -194 -29 -219 -25 -103 -77 -23 -106
166 -47 297 -64 352 -130 428 -54 61 -120 88 -211 88 -56 0 -87 -6 -115 -20
-78 -40 -132 -115 -160 -222 -48 -188 68 -373 215 -342 48 10 74 49 79 121 7
103 -30 167 -95 159 -34 -4 -46 -38 -13 -38 40 0 73 -130 38 -153 -28 -18 -67
7 -89 59 -48 107 -31 221 39 269 44 30 67 31 109 5 58 -35 77 -89 98 -277 36
-321 86 -441 249 -590 120 -110 281 -173 441 -173 227 0 412 68 637 233 182
133 320 212 441 252 183 60 311 58 496 -7 381 -133 635 -151 901 -62 206 69
344 160 451 299 74 97 113 184 114 255 0 53 -1 55 -28 58 -35 4 -52 -9 -95
-78 -62 -99 -146 -174 -293 -263 -163 -98 -302 -143 -477 -153 -124 -7 -223 4
-316 36 -28 9 -51 23 -51 30 0 8 34 25 80 40 200 67 380 192 512 353 30 37 59
67 63 67 4 0 11 -12 14 -26 4 -14 28 -47 55 -74 40 -40 58 -50 106 -60 75 -16
122 -2 165 46 35 40 50 73 50 109 0 33 -31 49 -56 30 -29 -22 -92 -37 -125
-30 -82 18 -74 188 13 282 78 84 272 92 382 15 73 -51 116 -171 116 -325 0
-107 -20 -196 -70 -304 -49 -105 -81 -152 -168 -240 -83 -85 -173 -146 -294
-197 -127 -54 -197 -66 -388 -66 -189 0 -266 13 -500 84 -261 80 -262 80 -430
81 -171 0 -233 -12 -348 -65 -50 -23 -95 -60 -214 -176 -134 -130 -161 -151
-232 -184 -100 -47 -205 -66 -266 -50 -41 11 -42 11 -89 -33 -27 -25 -68 -55
-92 -67 -43 -23 -82 -23 -186 -4 -33 6 -33 6 -47 -57 -5 -21 -20 -31 -98 -62
-117 -46 -172 -58 -224 -48 -69 13 -76 23 -49 75 21 40 6 54 -40 37 -64 -23
-157 5 -223 67 -42 39 -46 90 -11 128 16 17 18 25 8 52 -6 17 -20 34 -32 38
-61 18 -96 92 -72 149 33 79 86 95 147 45 l37 -31 5 23 c15 81 26 202 18 210
-5 5 -28 1 -53 -8 -57 -21 -184 -23 -224 -4 -41 21 -42 44 -3 79 26 23 30 32
21 42 -10 10 -21 10 -51 1 -22 -7 -48 -12 -59 -12 -34 0 -71 38 -88 90 -9 28
-19 50 -23 50 -3 0 -21 -15 -40 -32 -28 -28 -40 -33 -80 -32 -81 1 -142 44
-142 99 0 25 8 40 36 64 l35 32 -31 35 c-59 67 -59 100 -1 167 59 67 135 86
169 42 11 -14 22 -25 24 -25 3 0 8 33 11 73 4 39 12 88 18 107 48 138 169 196
327 156 77 -20 133 -33 178 -41 18 -3 53 -20 79 -36 59 -37 60 -41 -52 161
-95 171 -120 210 -134 210 -12 0 -26 -37 -46 -120 -9 -36 -17 -66 -18 -67 -1
-2 -25 6 -53 17 -29 11 -70 20 -92 20 -22 0 -40 2 -40 5 0 3 31 45 69 93 81
102 96 141 118 308 10 68 20 124 23 124 3 0 23 -48 43 -107 21 -60 48 -128 61
-153 l22 -45 61 -3 c45 -2 63 1 73 13 7 8 28 100 46 203 52 297 56 312 64 307
4 -3 11 -35 15 -72z m3135 -82 c0 -10 -80 -64 -86 -58 -8 8 54 67 70 67 9 0
16 -4 16 -9z m-436 -20 c10 -15 -78 -80 -91 -67 -8 8 24 49 49 63 28 15 35 16
42 4z m1186 -1013 c0 -219 10 -297 55 -428 61 -179 175 -269 317 -250 31 5 71
16 88 27 37 21 86 91 102 145 14 47 28 50 23 6 -2 -18 -9 -79 -16 -135 -10
-81 -10 -112 0 -144 12 -40 11 -43 -38 -129 -47 -81 -51 -92 -51 -154 0 -64 1
-67 39 -101 l38 -35 -14 -57 c-27 -111 -21 -195 22 -323 30 -87 39 -131 40
-182 0 -36 -3 -69 -7 -73 -4 -4 -22 -10 -40 -14 -40 -8 -47 -32 -19 -67 12
-15 21 -36 21 -48 0 -31 -54 -91 -104 -115 -99 -49 -362 -66 -616 -41 -286 28
-473 -18 -572 -141 -71 -90 -109 -182 -169 -410 -52 -202 -60 -213 -129 -185
-22 9 -67 16 -99 16 -49 0 -65 -5 -101 -31 l-42 -31 -70 26 c-38 14 -78 26
-89 26 -18 0 -16 -6 18 -44 30 -34 45 -66 67 -138 15 -51 48 -131 73 -177 94
-172 454 -976 441 -985 -1 -1 -55 -8 -118 -14 -63 -7 -150 -19 -194 -28 -73
-15 -88 -15 -200 0 -66 9 -134 22 -149 28 -44 17 -57 -4 -28 -43 21 -29 22
-32 7 -47 -11 -11 -39 -18 -85 -20 -80 -5 -136 15 -197 71 -37 33 -41 34 -64
21 -38 -20 -49 -17 -72 22 -19 32 -24 35 -61 32 -35 -3 -42 -7 -51 -35 -16
-47 -40 -71 -85 -83 -81 -21 -213 32 -229 93 -10 39 -21 39 -43 1 -14 -25 -22
-29 -57 -27 -49 2 -109 28 -123 54 -8 15 -3 23 31 44 22 14 40 29 40 34 0 4
-22 11 -50 14 -28 3 -78 21 -116 41 -37 20 -70 36 -73 36 -4 0 -12 -14 -19
-32 -10 -27 -8 -39 18 -102 17 -39 40 -88 51 -110 25 -46 17 -56 -49 -56 -51
0 -78 12 -110 48 -17 19 -25 23 -29 14 -14 -36 -58 -73 -106 -87 -71 -21 -86
-19 -156 17 l-62 32 -46 -23 c-26 -12 -85 -29 -132 -36 -96 -15 -251 -29 -251
-22 0 2 41 80 91 173 123 226 234 436 331 624 44 85 90 170 101 189 l20 34
-24 44 c-40 73 -28 145 38 218 48 55 55 65 59 97 10 64 26 97 66 133 33 30 46
36 74 33 21 -2 35 1 38 9 3 7 21 13 42 13 27 0 44 -8 68 -33 18 -17 35 -39 38
-47 9 -23 25 -1 40 53 12 45 11 48 -10 63 -20 13 -22 24 -22 95 0 72 -2 79
-20 79 -11 0 -20 -7 -20 -16 0 -8 -10 -38 -21 -65 -19 -43 -25 -49 -51 -49
-35 0 -36 -15 10 165 54 210 59 394 17 650 -38 231 -129 455 -225 557 -22 22
-37 44 -35 49 3 4 31 15 63 24 124 36 186 80 372 260 189 184 222 206 342 231
132 29 239 12 498 -77 322 -111 410 -135 555 -148 296 -29 567 79 804 318 111
112 154 173 202 292 58 143 73 220 75 389 l2 155 54 22 c29 11 56 22 61 22 4
1 7 -90 7 -201z m-3310 102 c15 -28 25 -120 14 -120 -37 0 -83 84 -68 124 9
22 41 20 54 -4z m4152 -182 c31 -9 38 -16 36 -32 -4 -30 -87 -82 -169 -106
-64 -19 -69 -23 -69 -49 0 -29 -15 -41 -49 -41 -12 0 -26 20 -43 63 -28 67
-25 90 19 129 48 44 189 62 275 36z m-3897 -125 c15 -88 90 -209 165 -269 21
-16 71 -45 111 -64 62 -29 70 -35 55 -44 -10 -6 -80 -52 -156 -103 -211 -140
-303 -183 -430 -202 -85 -13 -178 -4 -250 25 -53 21 -126 68 -133 86 -2 7 6
34 19 59 13 26 28 68 35 95 6 27 15 52 18 57 4 4 29 -18 55 -48 80 -92 162
-117 253 -76 81 37 125 161 138 383 4 68 9 126 12 131 2 4 26 7 52 7 48 0 49
0 56 -37z m2015 -2795 c24 -19 29 -29 25 -53 -13 -85 -26 -264 -22 -292 7 -42
-9 -42 -27 0 -7 17 -33 72 -56 120 -59 125 -80 188 -69 209 28 52 93 59 149
16z"/>
<path d="M4812 8921 c-95 -33 -162 -122 -162 -215 0 -26 7 -60 16 -75 41 -69
153 -101 229 -65 49 23 80 87 70 144 -11 64 -80 109 -124 81 -12 -8 -12 -15 3
-46 28 -57 -1 -79 -73 -54 -28 10 -31 15 -31 54 0 61 14 92 52 115 43 26 108
26 158 0 115 -59 152 -265 86 -484 -31 -104 -105 -286 -116 -286 -4 0 -15 20
-24 45 -26 67 -94 137 -168 171 -59 27 -71 29 -188 29 -116 0 -129 -2 -176
-27 -27 -14 -56 -34 -63 -42 -25 -30 -34 -18 -27 39 6 61 13 93 28 142 8 27
21 38 72 63 35 16 79 47 99 69 41 45 77 135 77 192 0 75 -68 111 -140 74 -35
-18 -86 -80 -134 -162 -21 -35 -43 -63 -50 -63 -7 0 -21 10 -32 21 -27 31
-115 86 -166 104 -23 8 -73 15 -110 15 l-68 0 -15 -36 c-8 -20 -20 -66 -25
-103 -18 -114 -47 -171 -89 -171 -21 0 -34 47 -41 152 -8 124 -21 152 -74 162
-38 7 -92 -10 -114 -36 -7 -9 -21 -61 -32 -116 -19 -100 -45 -167 -74 -191
-29 -25 -36 -2 -36 123 0 106 -2 125 -18 139 -25 23 -70 21 -110 -3 -39 -24
-46 -40 -67 -150 -18 -94 -50 -182 -87 -236 -26 -39 -27 -39 -138 -9 -54 14
-73 15 -116 6 -139 -31 -224 -146 -224 -303 0 -62 9 -88 43 -125 29 -32 99
-32 121 -1 25 36 20 58 -14 65 -42 8 -54 35 -47 103 8 75 14 88 48 105 42 22
70 18 122 -16 148 -98 276 -360 262 -534 -9 -101 -30 -170 -62 -195 -14 -11
-30 -17 -34 -13 -19 20 -49 154 -55 241 -7 116 -19 159 -44 167 -37 12 -100 7
-124 -9 -28 -18 -32 -36 -41 -181 -9 -159 -50 -295 -90 -295 -34 0 -45 102
-30 282 8 108 8 109 -68 122 -69 13 -94 -22 -118 -162 -13 -83 -12 -243 2
-293 32 -112 140 -151 258 -93 50 25 59 35 115 127 l17 28 43 -39 c68 -63 160
-65 261 -7 51 29 104 95 111 137 11 64 16 63 39 -5 23 -64 23 -69 8 -115 -27
-79 -77 -147 -140 -190 -139 -94 -233 -119 -493 -132 -246 -12 -281 -16 -390
-46 -109 -29 -182 -68 -248 -132 -99 -96 -132 -189 -132 -372 -1 -136 -16
-191 -75 -268 -27 -34 -55 -57 -85 -70 -44 -18 -44 -19 -22 -31 63 -34 195
-17 237 29 10 11 21 20 26 20 17 0 29 -70 29 -167 0 -123 10 -153 70 -207 66
-60 62 -24 -12 92 -22 36 -45 209 -30 224 4 4 31 -10 60 -32 54 -40 97 -54
148 -48 41 4 36 27 -11 53 -146 81 -240 404 -169 586 40 102 101 158 206 189
107 33 160 39 408 50 251 11 324 22 448 70 95 36 248 135 318 204 47 48 64 76
129 221 46 101 46 101 115 34 65 -63 97 -75 176 -66 79 9 141 70 136 135 -2
29 -19 52 -37 52 -7 0 -24 -11 -39 -25 -15 -14 -35 -25 -45 -25 -38 0 -87 79
-99 162 l-7 53 84 11 c66 10 93 18 128 43 24 17 48 29 54 26 5 -4 9 -21 9 -38
1 -110 75 -276 142 -316 83 -51 159 -35 243 53 69 71 111 162 140 301 17 85
25 282 13 326 -29 104 -134 -32 -234 -303 -25 -68 -48 -131 -51 -140 -3 -10
-9 -18 -13 -18 -12 0 -29 143 -36 308 l-7 152 44 41 c72 67 122 91 197 97 89
6 151 -21 188 -83 31 -54 58 -185 79 -390 23 -225 31 -262 76 -372 130 -311
254 -461 352 -424 59 23 60 74 6 166 -152 257 -203 441 -203 732 l0 153 68
132 c38 73 110 191 160 261 191 269 215 310 201 344 -6 16 -10 14 -37 -17 -51
-60 -155 -222 -192 -300 -41 -85 -44 -83 -16 13 10 38 26 119 35 180 26 178
62 257 116 257 12 0 19 -7 19 -20 0 -12 11 -25 26 -32 23 -11 29 -10 45 11 25
31 25 83 -1 106 -32 29 -98 30 -150 3 -40 -22 -98 -83 -113 -120 -4 -10 -9 -8
-18 6 -50 81 -154 146 -231 146 -24 -1 -67 -9 -96 -19z m-393 -198 c-24 -64
-70 -116 -86 -99 -7 6 78 126 88 126 5 0 4 -12 -2 -27z m-440 -72 c40 -21 85
-67 127 -131 l25 -38 -30 -104 c-36 -123 -51 -239 -53 -405 -1 -68 -5 -123 -9
-123 -4 0 -18 12 -31 28 -12 15 -40 40 -61 56 -32 25 -43 28 -85 23 -26 -3
-57 -9 -70 -13 -21 -6 -23 -4 -16 22 3 16 20 57 36 92 29 62 30 63 62 56 74
-13 124 48 76 96 -26 26 -59 33 -124 28 -119 -10 -209 -128 -242 -321 -12 -69
-15 -132 -11 -253 5 -183 6 -181 -76 -228 -27 -15 -50 -26 -51 -24 -13 21 -48
163 -52 209 -4 55 -3 60 14 55 43 -14 97 92 82 160 -10 41 -40 74 -70 74 -26
0 -65 -35 -85 -76 -9 -20 -20 -32 -24 -28 -4 5 -15 37 -24 72 -27 99 -80 203
-134 262 l-51 55 61 83 c60 83 61 83 73 59 15 -27 70 -57 106 -57 41 1 102 35
146 84 l43 47 43 -45 c39 -43 46 -46 92 -46 70 0 131 33 171 93 37 55 48 93
58 190 8 77 17 82 84 48z m-88 -840 c30 -24 22 -33 -39 -39 -57 -5 -73 9 -46
39 22 24 55 24 85 0z"/>
<path d="M3953 8478 c6 -83 35 -169 48 -145 5 8 11 39 15 68 5 44 2 63 -16
102 -12 26 -29 47 -38 47 -12 0 -14 -12 -9 -72z"/>
<path d="M3889 8383 c-1 -4 -1 -11 0 -15 0 -4 -6 -5 -14 -2 -25 10 -16 -10 10
-23 23 -10 25 -9 25 12 0 22 -19 46 -21 28z"/>
<path d="M3437 8209 c-15 -11 -31 -37 -37 -57 -5 -21 -16 -46 -24 -57 -13 -17
-15 -16 -34 27 -11 25 -25 49 -32 53 -18 11 -6 -106 15 -143 21 -39 53 -74 62
-69 24 16 106 228 97 252 -8 20 -16 19 -47 -6z"/>
<path d="M3486 7594 c-10 -25 -7 -34 9 -34 8 0 15 9 15 19 0 26 -16 35 -24 15z"/>
<path d="M3475 7490 c3 -5 10 -10 16 -10 5 0 9 5 9 10 0 6 -7 10 -16 10 -8 0
-12 -4 -9 -10z"/>
<path d="M5618 8853 c-10 -3 -18 -11 -18 -20 0 -9 6 -13 15 -9 8 3 15 1 15 -4
0 -5 7 -6 17 -3 10 4 14 2 9 -5 -3 -6 -2 -13 3 -16 5 -3 12 1 15 10 8 21 8 49
0 41 -4 -3 -14 -3 -23 2 -9 4 -24 6 -33 4z"/>
<path d="M6105 8846 c-71 -24 -109 -44 -157 -83 -72 -58 -145 -148 -184 -224
-19 -38 -39 -69 -44 -69 -5 0 -21 18 -36 39 -26 40 -52 55 -113 65 -66 12
-141 -26 -141 -71 0 -25 54 -62 100 -68 72 -9 120 -25 141 -46 17 -17 19 -34
19 -165 l0 -146 -43 25 c-100 59 -247 73 -333 33 -59 -27 -100 -73 -149 -168
-50 -95 -65 -151 -65 -249 0 -182 73 -303 213 -350 96 -32 170 -9 246 77 59
67 86 149 86 259 -1 140 -46 215 -130 215 -50 0 -80 -56 -34 -64 65 -11 95
-64 86 -150 -8 -82 -58 -180 -102 -200 -43 -21 -66 -15 -99 25 -43 50 -60 128
-52 236 4 52 12 108 18 126 41 124 181 178 292 113 36 -21 61 -48 101 -109 63
-97 95 -129 155 -156 59 -27 159 -28 215 -2 48 22 118 96 140 147 36 88 9 179
-53 172 -27 -3 -27 -5 -15 -50 5 -18 -30 -58 -51 -58 -83 0 -46 209 50 289 82
67 156 61 191 -17 37 -80 12 -365 -46 -535 -14 -41 -22 -51 -37 -49 -11 2 -30
5 -44 8 -14 2 -33 -2 -43 -10 -37 -29 -46 -319 -16 -516 21 -141 83 -276 140
-305 36 -19 102 -19 137 -1 28 15 99 124 122 189 8 20 17 37 21 37 4 0 13 -16
19 -35 38 -114 239 -237 344 -211 33 8 83 52 102 88 42 81 58 232 28 262 -17
17 -61 21 -82 7 -7 -4 -25 -57 -40 -117 -26 -103 -28 -109 -54 -112 -52 -6
-153 131 -178 243 -7 31 -9 85 -4 143 6 88 9 96 45 145 77 101 193 227 236
257 105 69 209 76 266 19 28 -28 29 -34 24 -90 -5 -61 -36 -127 -76 -163 -20
-18 -21 -18 -68 1 -96 41 -170 38 -238 -8 -61 -42 -79 -94 -50 -149 39 -74
220 -89 343 -27 71 35 169 132 204 201 24 48 32 77 36 143 4 75 2 87 -22 137
-32 65 -82 110 -148 132 -43 14 -46 17 -35 35 16 26 -22 216 -53 259 -31 44
-75 63 -126 56 -47 -6 -46 -7 -58 66 -8 44 -55 88 -95 88 -34 0 -78 -44 -91
-91 -6 -18 -10 -63 -10 -99 0 -57 4 -70 28 -100 25 -30 35 -34 88 -38 41 -3
72 1 98 12 21 9 47 16 57 16 19 0 61 -55 99 -130 12 -25 27 -48 33 -52 6 -3
-16 -9 -49 -13 -115 -12 -136 -17 -202 -50 -104 -53 -173 -120 -278 -273 -1
-2 -11 1 -22 7 -49 26 -76 -18 -122 -199 -63 -244 -127 -443 -141 -434 -22 13
-31 103 -33 311 -1 216 0 222 22 250 84 104 146 260 178 448 37 214 -42 372
-203 405 -105 22 -199 -8 -278 -88 -87 -88 -129 -235 -90 -313 27 -54 56 -79
97 -86 71 -11 19 -53 -66 -53 -44 0 -53 4 -87 39 -61 65 -82 134 -82 276 0
105 3 131 28 205 37 113 49 134 109 198 76 81 170 145 214 146 l37 1 -1 -56
c-1 -31 -9 -71 -18 -89 -19 -39 -20 -62 -4 -78 21 -21 55 -13 86 19 42 43 65
94 70 156 8 100 -70 187 -178 198 -34 3 -70 0 -95 -9z m869 -538 c16 -22 21
-92 10 -122 -7 -19 -45 -21 -62 -4 -16 16 -15 71 2 113 17 41 29 44 50 13z
m75 -909 c39 -14 40 -25 0 -33 -71 -14 -135 -1 -107 21 30 24 62 28 107 12z"/>
<path d="M3720 8840 c0 -5 5 -10 10 -10 6 0 10 5 10 10 0 6 -4 10 -10 10 -5 0
-10 -4 -10 -10z"/>
<path d="M5505 8787 c-13 -10 -16 -21 -11 -40 5 -23 10 -26 35 -21 39 8 71
-24 71 -71 0 -19 4 -35 8 -35 18 0 32 26 32 61 0 44 -30 86 -76 105 -40 17
-36 17 -59 1z"/>
<path d="M6600 8580 c0 -5 12 -16 28 -25 40 -22 65 -46 91 -87 40 -67 55 -43
22 33 -16 35 -30 49 -66 67 -49 24 -75 28 -75 12z"/>
<path d="M6486 8548 l-29 -11 60 -27 c53 -24 67 -38 118 -109 32 -44 64 -81
71 -81 21 0 -3 80 -41 136 -58 84 -118 115 -179 92z"/>
<path d="M4604 8523 c4 -5 11 -8 14 -8 4 0 36 -22 72 -49 36 -26 81 -56 101
-66 19 -10 41 -26 48 -34 41 -49 33 31 -8 83 -18 22 -46 41 -90 57 -59 22
-154 34 -137 17z"/>
<path d="M6035 8448 c-36 -21 -129 -138 -109 -138 8 0 65 42 86 64 8 7 40 28
71 46 31 17 57 34 57 36 0 9 -86 3 -105 -8z"/>
<path d="M5339 8276 c-66 -27 -115 -60 -129 -87 -14 -26 -3 -24 36 6 94 72
210 83 319 30 85 -41 85 -41 31 9 -76 69 -159 83 -257 42z"/>
<path d="M6652 8139 c8 -28 7 -83 0 -181 -7 -77 -9 -144 -6 -149 3 -5 0 -9 -5
-9 -6 0 -11 -5 -11 -10 0 -22 38 11 70 60 28 43 34 64 38 126 6 89 -11 157
-46 184 -40 32 -52 27 -40 -21z"/>
<path d="M2313 7985 c-47 -28 -83 -80 -83 -118 0 -56 101 -88 168 -53 79 42
110 128 62 176 -29 29 -94 26 -147 -5z"/>
<path d="M6861 7991 c-6 -10 -7 -22 -3 -26 4 -5 2 -5 -4 -2 -16 9 -48 -29 -40
-48 3 -9 2 -14 -3 -11 -10 6 -25 -24 -16 -32 3 -3 19 7 35 23 24 23 27 31 18
44 -10 13 -10 14 2 4 11 -11 19 -8 42 14 15 15 28 33 28 40 0 20 -48 16 -59
-6z"/>
<path d="M7488 7774 c3 -17 8 -22 15 -15 11 11 3 41 -11 41 -5 0 -7 -12 -4
-26z"/>
<path d="M2251 7734 c-41 -29 -51 -74 -61 -269 -5 -100 -15 -205 -20 -232 -13
-58 -46 -116 -63 -110 -22 7 -31 54 -21 106 12 58 9 70 -21 81 -37 14 -63 1
-85 -44 -24 -51 -25 -94 -4 -165 32 -108 110 -155 211 -126 42 12 57 23 86 63
77 105 85 134 96 318 5 93 9 213 8 267 -2 85 -5 101 -21 113 -26 19 -76 18
-105 -2z"/>
<path d="M5395 7721 c-3 -11 -2 -28 3 -36 8 -15 10 -15 21 -1 15 17 11 48 -6
53 -6 2 -14 -5 -18 -16z"/>
<path d="M6037 7558 c-16 -51 -25 -66 -94 -158 -18 -24 -33 -53 -33 -66 0 -29
28 -57 49 -49 30 12 36 10 39 -13 7 -43 -28 -213 -57 -276 -27 -60 -83 -120
-105 -113 -16 5 -36 48 -36 78 0 14 9 68 20 120 23 115 40 273 40 385 0 71 -3
87 -20 104 -29 29 -62 30 -92 3 -13 -11 -18 -31 -18 -67 0 -50 -20 -169 -39
-232 -15 -53 -31 -76 -112 -163 -85 -91 -119 -148 -119 -202 0 -64 63 -119
114 -99 33 12 35 52 4 72 -21 14 -21 16 -6 39 9 13 27 35 39 49 l24 25 8 -79
c4 -44 15 -95 24 -113 37 -78 140 -115 217 -78 43 21 100 91 116 143 6 20 14
44 17 52 3 9 14 -12 28 -47 39 -107 91 -158 154 -151 38 5 35 22 -8 51 -85 57
-121 166 -130 402 l-6 160 -42 3 c-38 3 -43 6 -43 27 0 18 11 32 40 50 60 38
83 100 64 173 -10 34 -19 27 -37 -30z"/>
<path d="M2062 7439 c1 -12 9 -24 16 -27 9 -3 13 3 10 19 -1 12 -9 24 -16 27
-9 3 -13 -3 -10 -19z"/>
<path d="M4605 7366 c-161 -51 -240 -175 -252 -397 -7 -133 13 -233 69 -342
65 -125 138 -177 250 -177 71 0 100 16 160 87 47 55 65 114 84 276 16 136 10
189 -23 223 -15 15 -18 15 -30 -1 -7 -10 -19 -43 -28 -74 -34 -124 -68 -222
-98 -282 -26 -51 -37 -65 -58 -67 -38 -4 -83 52 -109 134 -29 96 -27 109 20
128 49 19 172 108 200 143 23 30 26 61 6 69 -8 3 -67 -20 -131 -51 -64 -32
-119 -54 -122 -51 -4 4 -1 35 6 69 20 97 73 175 131 192 31 9 60 34 60 51 0
26 -23 62 -47 73 -29 13 -37 13 -88 -3z"/>
<path d="M5178 7293 c4 -10 22 -46 39 -80 18 -33 41 -94 51 -133 l19 -72 13
75 c17 104 3 144 -71 200 -42 31 -62 35 -51 10z"/>
<path d="M5562 7268 c-80 -42 -154 -114 -186 -180 -39 -83 -41 -217 -4 -254
11 -11 13 0 13 64 0 96 17 126 130 244 133 137 149 179 47 126z"/>
<path d="M4270 7239 c-19 -10 -46 -19 -60 -20 l-25 0 25 -17 c13 -9 32 -25 42
-34 16 -16 19 -15 40 30 12 26 24 50 26 55 6 12 -11 7 -48 -14z"/>
<path d="M3593 7127 c-47 -71 -61 -118 -41 -135 9 -7 35 -9 71 -5 50 5 55 8
47 24 -24 44 2 87 35 59 25 -20 19 29 -9 74 -36 60 -55 56 -103 -17z"/>
<path d="M6820 7180 c0 -5 5 -10 11 -10 5 0 8 -4 4 -9 -3 -5 -1 -12 5 -16 6
-4 8 -10 6 -14 -3 -4 -1 -13 5 -21 6 -11 9 -3 9 26 0 29 -5 44 -16 48 -21 8
-24 8 -24 -4z"/>
<path d="M5916 7143 c-8 -19 11 -83 25 -83 5 0 9 23 9 50 0 36 -4 50 -14 50
-8 0 -17 -7 -20 -17z"/>
<path d="M7176 7077 c-54 -117 -45 -184 31 -245 41 -32 93 -57 93 -44 -1 47
-34 225 -51 274 -34 102 -34 102 -73 15z"/>
<path d="M1860 7018 c0 -6 -3 -8 -7 -4 -8 7 -66 -81 -61 -94 3 -10 121 84 126
100 2 6 -10 10 -27 10 -17 0 -31 -5 -31 -12z"/>
<path d="M3489 6873 c31 -28 46 -51 56 -88 11 -41 13 -45 14 -20 1 44 -23 116
-44 131 -10 8 -30 14 -43 14 -23 0 -22 -3 17 -37z"/>
<path d="M5016 6821 c9 -24 13 -52 10 -66 l-7 -26 41 21 c22 11 40 25 40 30 0
16 -54 68 -78 75 l-22 6 16 -40z"/>
<path d="M7097 6811 c3 -11 16 -22 29 -25 13 -4 24 -13 24 -21 0 -8 5 -15 10
-15 6 0 10 3 10 8 -1 11 -30 47 -30 37 0 -5 -7 1 -16 13 -19 27 -34 29 -27 3z"/>
<path d="M3164 6798 l-41 -20 36 -55 36 -54 8 53 c4 29 6 63 5 74 l-3 21 -41
-19z"/>
<path d="M3360 6781 c-60 -31 -65 -59 -65 -361 0 -249 1 -269 23 -340 31 -99
63 -147 115 -171 105 -47 213 4 205 99 -3 34 -5 37 -35 37 -30 0 -34 4 -47 45
-31 97 -41 191 -52 474 -3 87 -9 169 -15 183 -5 13 -24 30 -44 38 -43 19 -43
19 -85 -4z"/>
<path d="M2385 6732 c-85 -18 -134 -43 -175 -88 l-25 -27 40 23 c22 13 52 32
67 42 14 10 32 18 40 18 8 0 19 5 26 12 8 8 48 12 115 12 129 0 191 -25 257
-103 24 -28 45 -49 47 -47 8 7 -20 63 -45 90 -15 15 -45 40 -67 54 -52 34
-164 39 -280 14z"/>
<path d="M2710 6741 c0 -12 23 -31 37 -31 24 0 13 28 -12 32 -14 3 -25 2 -25
-1z"/>
<path d="M5176 6730 c-60 -18 -116 -92 -116 -155 0 -48 13 -44 29 10 20 67 58
88 193 110 47 7 57 22 23 35 -31 12 -89 12 -129 0z"/>
<path d="M3636 6704 c-10 -25 -7 -84 4 -84 15 0 44 66 37 84 -8 21 -33 21 -41
0z"/>
<path d="M7013 6698 c2 -7 10 -13 17 -13 7 0 15 6 18 13 2 7 -5 12 -18 12 -13
0 -20 -5 -17 -12z"/>
<path d="M5753 6680 c-17 -4 -68 -22 -112 -40 l-81 -32 -81 23 c-71 20 -86 22
-136 11 -62 -13 -115 -48 -144 -96 -52 -85 8 -226 96 -226 46 0 80 32 65 61
-6 11 -18 23 -26 26 -8 3 -14 19 -14 38 0 27 5 35 30 45 38 16 83 7 190 -37
159 -65 289 -55 349 28 60 82 62 172 5 198 -28 12 -92 13 -141 1z"/>
<path d="M6045 6648 c-51 -45 -50 -149 3 -169 66 -25 142 24 142 91 0 28 -8
46 -29 69 -35 38 -78 41 -116 9z"/>
<path d="M2365 6626 c-56 -17 -131 -63 -155 -93 -19 -24 -66 -161 -58 -169 2
-2 22 20 43 48 98 127 142 172 194 199 56 30 45 37 -24 15z"/>
<path d="M4393 6508 c3 -10 2 -20 -3 -23 -22 -14 -8 -30 24 -30 l35 0 -27 30
c-15 16 -29 32 -31 35 -2 3 -1 -3 2 -12z"/>
<path d="M4903 6463 c-23 -9 -14 -27 25 -52 94 -62 182 -174 182 -234 0 -10 5
-15 11 -12 12 8 6 120 -11 186 -20 79 -69 119 -145 118 -27 0 -56 -3 -62 -6z"/>
<path d="M5390 6416 c0 -13 20 -26 41 -26 5 0 9 9 9 20 0 15 -7 20 -25 20 -15
0 -25 -6 -25 -14z"/>
<path d="M6075 6390 c3 -5 11 -10 16 -10 6 0 7 5 4 10 -3 6 -11 10 -16 10 -6
0 -7 -4 -4 -10z"/>
<path d="M1787 6329 c-56 -50 -66 -73 -51 -113 11 -28 22 -18 73 66 73 117 68
127 -22 47z"/>
<path d="M2301 6347 c-5 -13 -8 -74 -8 -135 2 -100 4 -111 21 -116 33 -9 39 4
32 73 -3 36 -9 94 -12 129 -7 68 -19 86 -33 49z"/>
<path d="M5850 6350 c0 -5 5 -10 10 -10 6 0 10 5 10 10 0 6 -4 10 -10 10 -5 0
-10 -4 -10 -10z"/>
<path d="M5257 6213 c-9 -17 -39 -57 -66 -87 -52 -60 -78 -127 -66 -167 7 -22
9 -19 21 21 8 26 34 70 63 104 51 60 76 111 69 143 -3 14 -8 11 -21 -14z"/>
<path d="M5240 6008 c-17 -22 -34 -57 -39 -77 -25 -94 -22 -95 33 -6 53 85 68
125 46 125 -5 0 -23 -19 -40 -42z"/>
<path d="M1925 5960 c-3 -5 -1 -10 4 -10 6 0 11 5 11 10 0 6 -2 10 -4 10 -3 0
-8 -4 -11 -10z"/>
<path d="M2120 5876 c0 -15 50 -60 58 -52 6 7 -37 66 -49 66 -5 0 -9 -6 -9
-14z"/>
<path d="M1828 5788 c-36 -55 -28 -128 20 -182 40 -45 154 -72 192 -45 13 9
13 11 0 16 -37 14 -106 101 -130 163 -28 73 -55 89 -82 48z"/>
<path d="M7245 5756 c-9 -57 1 -115 32 -194 18 -44 23 -72 19 -96 -5 -24 -2
-39 11 -55 18 -21 19 -21 73 -3 64 20 110 52 110 77 0 9 -25 45 -55 78 -31 34
-67 87 -82 117 -34 70 -70 120 -88 120 -9 0 -16 -16 -20 -44z"/>
<path d="M7068 5548 c-18 -33 -14 -377 5 -483 24 -129 97 -300 134 -312 15 -5
28 147 20 246 -4 42 -16 110 -28 151 -12 41 -27 118 -33 172 -11 89 -11 99 7
133 l19 37 -38 39 c-43 44 -68 49 -86 17z"/>
<path d="M7425 5373 c-34 -28 -52 -49 -44 -51 8 -1 53 11 101 27 48 16 96 27
107 24 34 -9 24 13 -13 31 -58 27 -88 21 -151 -31z"/>
<path d="M7235 5325 c3 -38 10 -74 16 -79 14 -16 11 53 -6 104 l-15 45 5 -70z"/>
<path d="M4810 6063 c0 -4 5 -15 10 -23 8 -13 10 -13 10 2 0 9 -4 20 -10 23
-5 3 -10 3 -10 -2z"/>
<path d="M2956 5870 c5 -83 11 -107 46 -184 29 -64 48 -126 66 -220 13 -72 28
-148 34 -168 19 -80 38 -28 38 108 0 138 -23 213 -104 343 -22 36 -50 99 -63
140 l-23 76 6 -95z"/>
<path d="M2865 5810 c-4 -6 -3 -16 3 -22 6 -6 12 -6 17 2 4 6 3 16 -3 22 -6 6
-12 6 -17 -2z"/>
<path d="M2780 5762 c0 -20 53 -135 109 -238 68 -124 86 -188 96 -336 4 -54
10 -100 14 -103 13 -8 21 208 10 276 -21 139 -89 283 -169 362 -48 47 -60 55
-60 39z"/>
<path d="M4036 5725 c-9 -26 -7 -32 5 -12 6 10 9 21 6 23 -2 3 -7 -2 -11 -11z"/>
<path d="M3210 5446 c0 -58 4 -106 9 -106 5 0 14 21 20 47 7 25 21 57 32 71
21 28 17 38 -33 73 l-28 20 0 -105z"/>
<path d="M5683 5505 c-17 -18 -52 -41 -77 -50 -40 -15 -45 -21 -40 -39 3 -12
13 -28 21 -36 13 -13 19 -10 55 30 37 42 84 118 76 125 -2 2 -17 -11 -35 -30z"/>
<path d="M3786 5470 c-9 -19 -24 -48 -32 -63 -21 -37 -10 -46 20 -18 34 32 50
75 38 97 -9 16 -12 14 -26 -16z"/>
<path d="M6180 5464 c-42 -19 -100 -62 -100 -74 0 -11 43 2 100 31 64 32 132
31 191 -4 55 -32 71 -35 38 -6 -65 56 -167 80 -229 53z"/>
<path d="M6206 5345 c-42 -15 -76 -41 -41 -32 74 20 111 18 149 -8 47 -32 96
-34 96 -5 0 15 -13 27 -42 40 -50 23 -107 25 -162 5z"/>
<path d="M4934 5242 c2 -16 14 -43 27 -61 l23 -31 -32 -30 c-34 -31 -40 -43
-19 -34 7 2 49 8 92 12 l80 8 -40 20 c-56 27 -71 42 -94 97 -23 52 -42 62 -37
19z"/>
<path d="M2092 5068 c-23 -23 -13 -58 31 -104 29 -30 53 -46 77 -50 28 -4 32
-3 18 6 -10 6 -18 19 -18 28 0 44 -22 88 -53 110 -39 26 -39 26 -55 10z"/>
<path d="M5755 4999 l-60 -62 62 42 c34 22 72 41 84 41 21 0 22 1 4 20 -10 11
-21 20 -24 20 -4 0 -33 -28 -66 -61z"/>
<path d="M4078 5022 c12 -16 30 -50 41 -74 28 -66 44 -78 106 -78 l55 0 -11
27 c-5 14 -23 45 -40 67 -28 38 -30 39 -35 18 -9 -31 -25 -28 -65 14 -18 20
-43 40 -53 46 -17 9 -17 8 2 -20z"/>
<path d="M5075 5020 c-22 -5 -92 -12 -155 -16 -98 -7 -108 -9 -70 -15 120 -20
307 -3 318 29 4 14 -30 14 -93 2z"/>
<path d="M5830 4909 c-54 -36 -172 -74 -255 -83 -86 -10 -115 -16 -115 -26 0
-19 203 1 285 27 76 25 185 86 185 104 0 19 -57 6 -100 -22z"/>
<path d="M6013 4530 c-13 -5 -23 -12 -23 -15 0 -9 16 -5 36 10 22 16 19 18
-13 5z"/>
<path d="M5950 4500 c-8 -5 -10 -10 -5 -10 6 0 17 5 25 10 8 5 11 10 5 10 -5
0 -17 -5 -25 -10z"/>
<path d="M5905 4485 c-5 -2 -27 -6 -47 -10 -21 -3 -38 -10 -38 -15 0 -15 31
-11 75 9 34 17 41 26 10 16z"/>
<path d="M2570 4271 c0 -5 7 -17 16 -26 15 -14 17 -14 29 2 12 15 11 19 -3 25
-25 10 -42 9 -42 -1z"/>
<path d="M2716 4243 c-16 -16 -4 -79 24 -128 33 -57 108 -133 161 -161 46 -25
172 -74 177 -70 2 2 -27 19 -65 36 -37 18 -83 40 -101 49 -70 34 -146 142
-166 238 -8 34 -19 47 -30 36z"/>
<path d="M2816 4203 c8 -61 39 -135 67 -161 42 -39 145 -74 215 -73 61 0 95
12 75 24 -5 3 -46 15 -92 27 -124 31 -159 52 -167 97 -8 48 -20 71 -52 106
-39 42 -53 36 -46 -20z"/>
<path d="M3928 4216 c-50 -30 -55 -36 -30 -36 12 0 36 13 54 30 39 35 28 37
-24 6z"/>
<path d="M2970 4214 c0 -22 42 -75 70 -89 18 -9 80 -25 138 -35 59 -10 126
-26 150 -34 31 -11 42 -12 40 -4 -5 15 -72 40 -183 69 -76 20 -126 42 -187 83
-16 10 -28 14 -28 10z"/>
<path d="M2658 4027 c9 -11 30 -26 47 -34 27 -13 28 -13 11 2 -11 8 -16 15
-11 15 4 0 0 9 -9 19 -10 11 -26 19 -37 18 -17 -1 -17 -2 -1 -20z"/>
<path d="M6688 4698 c-34 -51 -59 -84 -236 -302 -45 -55 -78 -104 -75 -109 3
-6 2 -7 -4 -4 -5 3 -22 -7 -37 -24 -19 -20 -53 -36 -109 -54 -45 -13 -107 -41
-137 -61 -30 -20 -68 -41 -83 -46 -22 -8 -27 -16 -25 -36 2 -14 15 -34 30 -45
l27 -20 48 35 c26 20 64 43 83 53 19 9 58 34 85 55 28 20 70 42 95 49 95 27
230 119 230 157 0 17 -6 17 -63 0 -39 -12 -47 -12 -47 -1 0 16 69 119 155 230
34 44 72 97 84 118 22 35 25 37 76 37 30 0 57 5 60 10 4 6 -18 10 -58 10 l-64
0 -35 -52z"/>
<path d="M6736 4589 c-39 -31 -56 -71 -56 -132 0 -84 51 -126 125 -105 91 26
117 204 36 248 -31 16 -76 12 -105 -11z"/>
<path d="M6971 4446 c-12 -14 -22 -64 -45 -226 -19 -127 -12 -164 28 -168 35
-4 57 18 97 98 29 60 37 100 19 100 -5 0 -10 -4 -10 -10 0 -5 -9 -10 -20 -10
-19 0 -20 7 -20 109 0 90 -3 110 -16 115 -21 8 -20 8 -33 -8z"/>
<path d="M7260 4414 c-14 -7 -37 -25 -50 -39 -23 -25 -25 -35 -28 -136 -3
-125 10 -142 47 -61 12 26 33 65 47 87 34 57 48 113 35 142 -12 26 -16 26 -51
7z"/>
<path d="M4485 4315 c-21 -20 -25 -34 -25 -81 0 -32 2 -55 5 -53 4 4 65 151
65 157 0 10 -25 -2 -45 -23z"/>
<path d="M4794 4326 c-3 -8 -4 -24 -2 -36 3 -20 9 -22 86 -24 59 -2 86 2 94
11 16 20 2 30 -67 47 -74 20 -104 20 -111 2z"/>
<path d="M4587 4258 c-9 -7 -23 -29 -31 -49 -16 -37 -96 -444 -96 -485 0 -45
-18 -24 -50 59 -56 140 -99 216 -128 224 -33 8 -73 -14 -90 -50 -18 -37 -31
-224 -34 -485 l-3 -214 24 -19 c30 -25 62 -24 94 1 38 30 47 77 47 238 0 78 3
142 8 142 4 0 18 -37 32 -83 37 -124 88 -165 144 -114 31 27 49 92 66 242 7
61 16 116 20 123 4 8 12 -25 19 -72 23 -165 85 -346 148 -431 36 -49 135 -105
187 -105 30 0 37 4 42 26 6 22 -1 34 -44 77 -110 111 -181 337 -232 742 -12
88 -24 171 -27 185 -12 53 -58 76 -96 48z"/>
<path d="M5092 4251 c-84 -22 -158 -105 -200 -226 -44 -130 -51 -316 -16 -445
28 -101 105 -219 177 -271 123 -89 301 43 315 232 4 62 3 68 -19 83 -42 27
-66 11 -89 -60 -42 -124 -101 -157 -163 -91 -30 31 -77 124 -77 151 0 8 24 28
53 44 57 33 141 112 163 154 18 35 9 76 -21 90 -29 13 -73 -9 -143 -73 -70
-63 -83 -64 -76 -1 16 148 49 233 103 269 48 32 73 29 126 -17 53 -45 53 -46
83 -24 67 47 -30 174 -143 188 -22 3 -55 1 -73 -3z"/>
<path d="M6660 4175 c-74 -41 -138 -75 -142 -75 -3 0 -20 14 -36 30 -35 34
-75 39 -111 14 -19 -14 -22 -23 -19 -66 l3 -50 -100 -51 c-87 -45 -100 -56
-103 -80 -7 -61 35 -71 156 -37 39 11 78 20 86 20 9 0 21 -36 37 -117 19 -95
24 -148 23 -268 0 -155 -10 -205 -40 -205 -27 0 -74 33 -95 67 -18 29 -19 37
-8 67 11 29 10 38 -5 60 -22 34 -48 33 -80 -4 -51 -62 -59 -150 -20 -228 43
-86 131 -121 255 -101 80 13 123 40 152 93 20 37 22 55 22 201 0 168 -11 241
-61 414 -13 47 -23 85 -21 86 119 56 170 88 229 146 55 53 68 72 68 97 0 31
-22 62 -43 62 -7 0 -73 -34 -147 -75z"/>
<path d="M4310 4156 c-11 -35 -11 -35 54 -99 36 -36 66 -61 66 -57 0 25 -43
141 -61 164 -28 35 -45 33 -59 -8z"/>
<path d="M4816 4157 c-13 -17 -29 -43 -34 -57 -10 -26 -4 -130 7 -130 8 0 35
74 51 140 6 25 13 53 16 63 8 28 -13 20 -40 -16z"/>
<path d="M5767 4119 c-36 -28 -80 -123 -116 -253 -16 -59 -32 -110 -34 -112
-2 -3 -14 31 -27 73 -46 159 -63 208 -78 226 -23 26 -67 22 -91 -9 -33 -42
-28 -119 18 -268 48 -151 85 -232 119 -254 30 -20 141 -25 171 -8 11 6 72 40
135 76 64 35 116 68 116 71 0 4 -17 3 -37 -2 -21 -5 -59 -9 -85 -9 -41 0 -54
-5 -88 -36 -22 -20 -43 -35 -46 -32 -2 3 18 61 46 129 138 335 142 348 136
374 -4 17 -18 31 -41 41 -46 19 -68 18 -98 -7z"/>
<path d="M5570 4087 c0 -7 5 -18 12 -25 9 -9 14 -7 24 6 19 25 17 32 -11 32
-14 0 -25 -6 -25 -13z"/>
<path d="M7093 4044 c-70 -92 -67 -89 -102 -75 -70 30 -157 -9 -205 -92 -143
-243 6 -653 229 -635 77 6 136 61 156 145 22 96 1 316 -41 422 l-20 51 45 50
c25 28 47 63 51 78 3 15 7 32 9 38 7 25 -26 54 -60 54 -27 0 -40 -7 -62 -36z
m-104 -209 c82 -93 109 -414 39 -458 -34 -22 -82 55 -113 178 -17 70 -24 252
-10 294 10 33 48 26 84 -14z"/>
<path d="M6956 3683 c6 -40 53 -147 60 -140 9 9 -20 149 -33 163 -24 24 -33
16 -27 -23z"/>
<path d="M4050 3945 c-27 -28 -22 -46 18 -73 22 -14 22 -14 22 42 0 31 -4 56
-8 56 -5 0 -19 -11 -32 -25z"/>
<path d="M6008 3884 c-23 -12 -68 -78 -68 -99 0 -14 73 52 86 78 19 36 16 39
-18 21z"/>
<path d="M7288 3847 c-49 -40 -56 -94 -21 -161 l16 -31 13 30 c27 61 46 137
40 161 -8 30 -14 30 -48 1z"/>
<path d="M3982 3811 c-9 -5 -1 -23 29 -64 23 -31 46 -57 49 -57 13 0 28 24 32
50 2 21 -5 29 -47 52 -30 16 -56 24 -63 19z"/>
<path d="M6032 3756 c-29 -18 -54 -35 -56 -37 -2 -2 65 -5 150 -5 110 -1 154
2 151 10 -6 18 -49 36 -89 36 -20 0 -43 7 -52 15 -21 22 -44 18 -104 -19z"/>
<path d="M6080 3601 c-210 -91 -374 -245 -480 -451 -23 -43 -24 -44 -31 -20
-4 14 -7 79 -8 146 -1 104 -4 123 -19 137 -37 34 -74 20 -97 -37 -13 -32 -16
-78 -15 -270 1 -127 1 -238 1 -247 -1 -16 -67 -53 -74 -41 -3 4 -21 66 -42
137 -42 147 -47 159 -83 198 -21 22 -34 27 -73 27 -54 0 -60 -6 -88 -80 -27
-75 -44 -152 -81 -374 -30 -180 -49 -246 -70 -246 -13 0 -16 19 -40 224 -13
114 -27 193 -38 215 -33 67 -113 61 -158 -11 -26 -40 -74 -179 -95 -273 -7
-31 -15 -58 -19 -60 -4 -2 -25 98 -48 223 -22 125 -44 235 -47 245 -6 15 0 17
48 17 40 0 61 5 81 21 15 12 29 19 32 16 3 -3 -5 -49 -19 -101 -14 -53 -21
-96 -17 -96 14 0 124 119 137 148 17 38 16 116 -2 160 -19 43 -53 82 -73 82
-8 0 -35 -22 -61 -50 l-47 -50 -132 0 c-111 0 -139 -3 -170 -19 -49 -25 -78
-58 -95 -106 -17 -48 -9 -75 28 -99 35 -23 70 -14 89 22 19 36 36 51 76 62
l33 9 -7 -92 c-18 -228 -53 -409 -122 -628 -43 -135 -45 -148 -33 -175 17 -35
53 -43 81 -17 30 26 81 141 117 262 17 58 33 107 36 109 4 5 9 -21 30 -167 17
-117 36 -151 87 -151 43 0 61 40 103 233 20 95 40 176 45 180 4 5 10 -20 14
-55 11 -96 44 -228 69 -272 28 -50 63 -61 107 -34 24 14 31 24 27 39 -4 15 2
23 26 33 18 7 38 20 46 29 19 24 31 21 31 -8 0 -54 32 -183 60 -241 17 -34 30
-66 30 -72 0 -23 47 -35 132 -36 l87 -1 45 44 c50 49 67 85 55 118 -12 33 -23
34 -62 7 l-36 -24 -3 87 c-3 82 -5 88 -25 91 -27 4 -38 -16 -68 -122 -12 -45
-25 -74 -28 -66 -11 30 -47 346 -47 411 0 52 4 68 16 73 33 13 41 4 59 -61 10
-38 24 -79 30 -93 33 -65 91 -78 128 -27 l21 27 -23 98 c-12 53 -25 104 -27
113 -6 21 57 64 67 46 3 -7 9 -54 13 -105 6 -91 25 -159 49 -174 20 -13 64 -9
77 7 10 12 12 50 7 155 -3 77 -4 140 -2 140 2 0 26 -44 55 -97 61 -117 114
-173 162 -173 78 0 102 63 51 136 -97 142 -153 228 -153 239 0 8 36 39 81 70
113 79 244 198 259 236 12 28 12 33 -5 45 -46 34 -87 16 -205 -86 -87 -75
-180 -143 -187 -136 -9 9 27 83 78 161 78 120 206 228 407 344 108 63 133 98
96 135 -23 24 -81 19 -154 -13z m-875 -783 c6 -40 5 -48 -8 -48 -23 0 -28 13
-21 65 8 55 20 48 29 -17z"/>
<path d="M7244 3503 c0 -59 -6 -139 -13 -178 -12 -60 -19 -75 -54 -109 -22
-21 -63 -50 -91 -63 -35 -17 -42 -23 -21 -18 17 4 50 16 75 28 25 11 56 24 70
27 21 5 25 11 25 43 0 30 10 50 47 97 97 120 119 169 101 216 -5 13 -11 5 -23
-32 -10 -27 -38 -83 -64 -123 -47 -73 -67 -89 -45 -35 15 36 17 230 3 244 -7
7 -11 -23 -10 -97z"/>
<path d="M4463 3344 c-18 -8 -4 -34 19 -34 13 0 18 6 16 17 -3 18 -16 24 -35
17z"/>
<path d="M5323 3315 c-14 -30 -15 -39 -3 -75 18 -53 30 -60 30 -17 0 19 3 55
6 81 8 56 -9 62 -33 11z"/>
<path d="M6713 3227 c-54 -45 -59 -52 -40 -55 32 -4 137 55 137 78 0 10 -7 21
-16 24 -19 7 -9 14 -81 -47z"/>
<path d="M6140 3197 c0 -21 -7 -52 -16 -68 -8 -17 -14 -40 -12 -52 3 -20 6
-19 31 15 32 42 37 85 13 119 l-16 23 0 -37z"/>
<path d="M6810 3182 c-66 -33 -28 -55 46 -27 24 9 44 23 44 31 0 20 -47 18
-90 -4z"/>
<path d="M4870 3115 c0 -19 24 -71 46 -100 11 -15 17 -17 23 -7 10 16 1 73
-10 66 -5 -3 -6 1 -4 8 3 8 -8 21 -25 31 -27 17 -30 17 -30 2z"/>
<path d="M5982 2956 c-45 -52 -55 -80 -53 -155 1 -74 8 -90 27 -63 20 29 66
196 62 228 l-3 28 -33 -38z"/>
<path d="M4167 2863 c-3 -10 -5 -46 -4 -81 0 -52 3 -62 16 -60 27 5 28 158 1
158 -5 0 -11 -8 -13 -17z"/>
<path d="M4271 2839 c-10 -24 -21 -69 -24 -99 -6 -55 -6 -55 13 -33 18 23 47
159 36 170 -3 3 -14 -14 -25 -38z"/>
<path d="M5820 2812 c0 -4 12 -25 27 -47 26 -37 28 -38 31 -17 4 28 -23 72
-43 72 -8 0 -15 -3 -15 -8z"/>
<path d="M4217 2563 c-11 -10 -8 -43 3 -43 6 0 10 11 10 25 0 26 -2 29 -13 18z"/>
<path d="M4000 2284 c-71 -31 -116 -92 -152 -205 -28 -93 -30 -228 -3 -419 10
-74 19 -196 19 -270 1 -150 -6 -175 -66 -225 -46 -39 -75 -48 -113 -35 -49 16
-65 41 -77 116 -14 91 -45 117 -88 74 -15 -15 -20 -33 -20 -73 0 -147 98 -257
229 -257 64 0 149 31 194 70 53 47 79 99 113 226 14 54 34 115 44 134 10 19
32 73 51 120 44 114 48 118 93 88 l36 -25 -20 -26 c-85 -108 -79 -272 12 -321
54 -29 149 -19 216 22 29 18 56 32 60 32 4 0 17 -19 29 -43 59 -122 160 -174
258 -133 44 19 120 89 135 126 19 45 6 76 -36 90 -34 12 -37 11 -73 -24 -45
-44 -89 -55 -114 -29 -21 24 -60 135 -50 143 5 3 33 14 63 24 80 27 169 76
208 115 29 28 33 39 28 64 -4 17 -12 35 -19 39 -26 18 -108 -1 -195 -47 -48
-25 -94 -45 -100 -45 -9 0 -11 11 -8 33 3 17 8 55 12 82 3 28 10 57 15 66 6
11 49 27 125 45 88 22 124 35 146 55 34 33 38 79 7 110 -18 18 -28 20 -82 14
-34 -4 -90 -13 -124 -21 -37 -8 -82 -11 -108 -7 -56 7 -81 -11 -90 -67 -6 -33
-14 -42 -63 -72 -71 -41 -87 -76 -53 -112 12 -13 36 -26 52 -30 l30 -6 -7 -92
c-3 -51 -12 -103 -20 -114 -20 -34 -133 -104 -165 -104 -35 0 -53 29 -44 70 4
16 31 63 61 104 86 119 82 156 -19 156 -24 0 -47 3 -50 6 -3 4 20 35 52 70 87
96 100 174 38 232 -41 38 -73 44 -118 22 -79 -41 -133 -150 -183 -375 -29
-131 -41 -167 -50 -145 -16 42 -36 218 -36 320 0 232 71 412 94 237 7 -58 5
-80 -13 -144 -25 -85 -23 -107 3 -38 10 25 34 69 54 97 49 72 61 119 51 193
-7 51 -13 65 -43 93 -40 36 -71 40 -126 16z m318 -436 c2 -20 -5 -32 -31 -52
-36 -27 -57 -33 -57 -16 0 13 28 69 43 88 16 20 42 9 45 -20z"/>
<path d="M4447 2164 c-13 -14 -7 -72 15 -131 30 -81 38 -86 38 -22 0 81 -32
174 -53 153z"/>
<path d="M4713 2116 c20 -51 37 -72 37 -46 0 6 5 10 12 10 23 0 98 42 98 55 0
9 -19 15 -57 18 -32 3 -70 8 -85 12 l-27 7 22 -56z"/>
<path d="M4570 2114 c-6 -14 -10 -34 -10 -45 0 -21 16 -26 22 -8 3 9 10 9 27
0 32 -18 34 -11 11 37 -24 48 -36 53 -50 16z"/>
<path d="M4980 2129 c0 -18 63 -189 68 -184 6 6 -28 134 -45 168 -14 28 -23
35 -23 16z"/>
<path d="M5455 1914 c-37 -40 -71 -137 -109 -315 -45 -209 -55 -241 -68 -237
-6 2 -20 28 -30 58 -14 41 -20 99 -24 244 -6 187 -7 192 -32 219 -37 39 -86
38 -111 -4 -45 -74 -60 -336 -27 -489 40 -191 150 -287 266 -235 48 21 70 62
102 188 23 86 38 111 38 61 0 -37 47 -120 76 -133 53 -24 131 -4 154 39 13 24
16 82 6 99 -4 7 -22 11 -39 9 -29 -3 -31 0 -39 37 -12 56 -14 164 -4 270 7 78
6 96 -9 125 -44 89 -104 114 -150 64z"/>
<path d="M3710 1639 c-89 -127 -115 -190 -88 -217 19 -19 38 -14 38 8 0 25 38
98 85 164 35 48 42 79 26 105 -6 10 -22 -6 -61 -60z"/>
<path d="M5665 1558 c-6 -16 16 -71 34 -82 10 -7 41 3 41 13 0 3 -16 24 -34
46 -28 33 -36 37 -41 23z"/>
<path d="M3763 1510 c-28 -43 -29 -76 -3 -115 25 -39 32 -21 28 76 l-3 74 -22
-35z"/>
<path d="M5780 1345 c0 -36 2 -65 4 -65 2 0 13 16 25 35 17 29 18 40 10 65 -6
16 -17 30 -25 30 -11 0 -14 -16 -14 -65z"/>
<path d="M3686 1294 c-21 -21 -20 -40 4 -64 24 -24 43 -25 64 -4 26 26 19 52
-21 73 -28 14 -29 14 -47 -5z"/>
<path d="M5693 1230 c-18 -11 -33 -23 -33 -28 0 -34 140 -112 202 -112 l38 0
-79 80 c-44 44 -83 80 -88 80 -4 0 -23 -9 -40 -20z"/>
<path d="M5850 1221 c0 -12 5 -21 10 -21 6 0 10 6 10 14 0 8 -4 18 -10 21 -5
3 -10 -3 -10 -14z"/>
<path d="M5500 1181 c0 -16 71 -54 81 -44 6 6 -1 14 -18 22 -16 7 -36 17 -45
22 -11 6 -18 5 -18 0z"/>
<path d="M4510 1166 c0 -31 59 -115 87 -122 37 -10 37 0 1 37 -18 19 -45 50
-60 69 -21 28 -27 31 -28 16z"/>
<path d="M5000 1155 c0 -3 9 -23 20 -44 33 -66 127 -130 171 -116 32 10 22 31
-22 44 -22 7 -69 37 -105 67 -35 30 -64 52 -64 49z"/>
<path d="M5425 1120 c-8 -13 11 -47 35 -60 10 -5 31 -10 47 -10 l28 1 -35 30
c-49 41 -67 51 -75 39z"/>
<path d="M3395 1084 c-9 -21 -25 -60 -37 -86 -12 -27 -19 -50 -16 -53 3 -3 27
16 53 42 42 43 46 52 41 82 -9 55 -23 60 -41 15z"/>
<path d="M5657 1069 c13 -23 27 -33 51 -35 17 -2 32 0 32 6 0 14 -64 60 -84
60 -17 0 -17 -2 1 -31z"/>
<path d="M4015 1069 c-8 -12 2 -59 13 -59 4 0 6 16 4 35 -4 37 -7 41 -17 24z"/>
<path d="M4680 1030 c0 -5 9 -10 19 -10 11 0 23 5 26 10 4 6 -5 10 -19 10 -14
0 -26 -4 -26 -10z"/>
<path d="M3487 994 c-23 -30 -18 -37 18 -28 31 8 44 32 24 45 -20 12 -22 11
-42 -17z"/>
<path d="M3830 4729 c0 -23 21 -47 50 -57 39 -14 38 -4 -3 36 -35 34 -47 39
-47 21z"/>
<path d="M3734 4685 c-9 -24 15 -45 52 -45 43 0 53 18 24 42 -27 22 -68 24
-76 3z"/>
<path d="M3835 4576 c-55 -13 -215 -93 -215 -107 0 -19 40 -6 157 52 148 73
154 79 58 55z"/>
</g>
</svg>
